<svg xmlns="http://www.w3.org/2000/svg" version="1.0" width="1505.000000pt" height="531.000000pt" viewBox="0 0 1505.000000 531.000000" preserveAspectRatio="xMidYMid meet">
<metadata>
Created by potrace 1.15, written by Peter Selinger 2001-2017
</metadata>
<g transform="translate(0.000000,531.000000) scale(0.100000,-0.100000)" fill="#54281e" stroke="none">
<path d="M1650 3304 c0 -10 50 -58 244 -234 27 -25 57 -52 66 -60 9 -8 43 -39 76 -68 l59 -54 -328 4 -327 5 -40 -75 c-45 -86 -45 -82 32 -187 l45 -61 87 -2 c69 -1 86 2 86 13 0 10 -10 15 -27 15 -14 0 -23 3 -20 6 6 7 203 7 280 0 77 -6 48 -17 -43 -16 -127 2 -130 1 -130 -10 0 -6 84 -11 219 -12 l219 -3 -174 -215 c-95 -118 -173 -221 -174 -227 0 -10 38 -13 157 -13 148 0 158 1 198 25 43 25 58 24 48 -1 -3 -9 2 -14 13 -15 11 0 29 -2 42 -3 13 -2 44 8 70 20 44 22 60 23 225 24 165 0 181 2 208 21 27 19 44 21 187 21 145 1 160 2 197 23 38 22 48 23 203 20 152 -4 165 -3 212 19 41 19 61 22 118 18 l69 -4 69 58 c38 32 74 63 80 69 6 5 35 30 65 55 29 25 74 63 99 85 25 21 55 47 66 58 20 17 46 18 395 17 206 -1 435 -3 509 -5 74 -1 376 -6 670 -9 294 -4 715 -9 935 -12 220 -3 747 -7 1170 -9 724 -3 1391 -9 2130 -20 176 -2 595 -7 930 -11 1065 -11 976 -8 996 -32 13 -17 28 -22 68 -22 l51 0 1 -42 c0 -48 17 -102 18 -61 2 41 12 53 47 53 24 0 34 -5 34 -15 0 -12 7 -15 33 -10 182 33 309 50 313 43 3 -4 1 -8 -5 -8 -6 0 -13 -17 -16 -37 -4 -21 -12 -54 -18 -73 -6 -19 -12 -39 -13 -45 -1 -5 -12 -48 -24 -95 -22 -83 -37 -177 -22 -134 15 42 176 224 199 224 8 0 13 -12 13 -30 0 -17 5 -30 13 -30 6 0 53 13 102 29 53 17 94 25 101 20 6 -5 125 26 292 76 154 47 288 85 296 85 18 0 166 47 185 59 26 16 3 29 -36 21 -21 -5 -42 -5 -48 -1 -18 15 -145 26 -315 28 -197 3 -261 6 -278 16 -6 5 -32 1 -57 -8 -25 -8 -57 -15 -71 -15 -14 0 -44 -15 -67 -33 -81 -65 -86 -59 -27 32 45 70 47 75 23 63 -21 -11 -103 -4 -103 9 0 4 23 7 50 5 28 -2 52 -1 55 3 2 4 26 5 52 2 26 -4 239 -8 472 -10 355 -3 422 -1 415 10 -7 12 -5 12 9 1 15 -13 89 -18 172 -13 30 2 30 2 -15 25 -25 13 -107 43 -184 67 -76 24 -133 45 -127 47 27 9 4 23 -86 51 -104 31 -276 81 -305 86 -9 2 -108 32 -220 66 -112 34 -225 67 -253 74 -27 7 -83 23 -123 35 -40 12 -75 20 -77 18 -3 -2 60 -24 138 -48 263 -80 359 -111 355 -115 -5 -5 -221 52 -451 120 -82 24 -115 26 -102 4 13 -20 -16 -7 -57 27 -59 49 -67 58 -44 50 11 -4 35 -9 55 -11 20 -2 -3 9 -53 25 -49 16 -92 27 -95 25 -7 -8 36 -80 48 -80 8 0 61 -62 61 -72 0 -11 -13 2 -35 34 -52 77 -22 16 56 -113 44 -73 85 -133 91 -131 6 1 12 -4 13 -11 2 -7 1 -8 -2 -2 -2 5 -8 8 -12 6 -4 -3 -56 4 -116 14 -61 10 -130 21 -155 25 -24 4 -47 8 -50 10 -3 1 -27 6 -54 9 -27 4 -53 9 -58 12 -13 8 -9 -37 7 -81 8 -22 15 -41 15 -42 0 -2 -25 -3 -55 -3 -49 0 -55 -2 -55 -21 0 -20 -2 -20 -317 -15 -534 10 -919 16 -1348 21 -685 9 -1137 15 -1415 21 -146 3 -659 7 -1140 9 -481 2 -972 6 -1090 9 -204 5 -408 8 -1535 22 -264 3 -543 7 -620 9 -77 2 -163 4 -192 4 -48 1 -61 7 -148 66 -367 251 -374 255 -423 256 -26 1 -61 0 -79 -1 -18 -1 -54 8 -80 21 -42 19 -70 22 -213 26 -131 3 -175 8 -215 23 -38 15 -85 20 -203 24 -132 4 -157 7 -186 25 -31 19 -49 21 -221 21 -167 0 -191 2 -219 19 -17 11 -55 22 -85 25 -50 6 -53 5 -48 -14 6 -25 -4 -25 -52 -1 -31 16 -63 20 -194 23 -110 2 -157 0 -157 -8z m1490 -766 c0 -6 -7 -19 -16 -29 -30 -33 -10 -39 51 -14 50 21 65 23 88 14 15 -6 27 -15 27 -19 0 -7 -31 -24 -72 -40 -16 -5 -28 -14 -28 -19 0 -10 162 38 195 57 19 11 19 12 -2 18 -37 10 -26 24 18 24 23 0 59 5 81 12 31 9 44 9 59 0 12 -8 37 -10 67 -7 94 12 222 11 222 -2 0 -18 -74 -74 -175 -134 -49 -29 -112 -71 -139 -93 l-50 -41 -148 -2 c-133 -1 -150 -3 -174 -22 -25 -19 -39 -21 -191 -21 -150 0 -167 -2 -190 -20 -18 -14 -41 -20 -73 -20 -56 0 -66 7 -43 33 18 19 17 19 -4 6 -13 -8 -23 -17 -23 -20 0 -12 -101 -22 -112 -11 -7 7 -3 12 11 17 11 3 43 23 69 44 27 21 64 47 83 56 19 10 54 40 79 67 35 37 55 50 85 55 22 4 51 18 68 34 16 16 46 31 66 35 20 4 42 11 48 16 33 26 123 45 123 26z"/>
</g>
</svg>